<?xml version="1.0" encoding="UTF-8" standalone="no"?>
<!-- Created with Inkscape (http://www.inkscape.org/) -->
<svg xmlns:svg="http://www.w3.org/2000/svg" xmlns="http://www.w3.org/2000/svg" version="1.0" width="695" height="897" id="svg11382">
  <defs id="defs11384"/>
  <g transform="translate(-48.907487,-55.625885)" id="layer1">
    <path d="M 743.90749,952.62588 L 743.90749,55.625885 L 48.907487,55.625885 L 48.907487,952.62588 L 743.90749,952.62588 z M 397.21999,944.96963 C 345.30849,944.96964 303.15749,912.24613 303.15749,871.93838 C 303.15749,831.63064 345.3085,798.90713 397.21999,798.90713 C 449.13147,798.90713 491.25124,831.63063 491.25124,871.93838 C 491.25124,912.24613 449.13148,944.96963 397.21999,944.96963 z M 482.28249,725.90713 L 311.25124,725.90713 L 311.25124,703.59463 C 311.25101,665.64355 315.54971,634.82822 324.15749,611.15713 C 332.76476,587.48681 347.79402,565.8764 364.81374,546.31338 C 381.83289,526.75128 406.8119,519.98659 466.28249,470.68838 C 497.97343,444.86634 521.56329,393.52033 521.56374,372.00088 C 523.77606,315.07843 507.62428,292.65517 487.00124,272.03213 C 464.32769,252.35494 426.32989,241.96964 396.00124,241.96964 C 368.22204,241.97032 327.51924,250.06288 308.21999,267.34463 C 282.28183,284.6277 242.99814,341.03623 251.18874,397.87588 L 56.657487,399.59463 C 56.657497,242.38063 86.047077,200.89906 155.65749,136.56339 C 223.05485,82.186755 282.2162,63.282135 399.53249,63.282135 C 489.25041,63.282155 561.41675,81.085345 613.84499,116.68839 C 685.05212,164.81308 736.15749,227.88412 736.15749,346.81338 C 736.1568,391.1342 716.98381,437.57928 693.06374,475.12588 C 674.67427,506.03527 632.7135,541.59947 574.87624,579.56338 C 532.04016,605.33198 508.18142,632.68179 497.81374,651.65713 C 487.44511,670.63316 482.28203,695.38982 482.28249,725.90713 z " style="fill:#000000;fill-opacity:1;stroke:none;stroke-width:3;stroke-linecap:square;stroke-linejoin:miter;stroke-miterlimit:4;stroke-dasharray:none;stroke-dashoffset:0;stroke-opacity:1" id="rect11480"/>
  </g>
</svg>